<svg xmlns="http://www.w3.org/2000/svg" viewBox="0 0 108 108" fill="none">
  <rect width="108" height="108" rx="24" fill="#6B4E3D"/>
  <path fill="#FFF9F0" d="M20 24c0-2 2-4 6-4h24v64H24c-3 0-4-2-4-4V24z"/>
  <path fill="#F5EBDD" d="M58 20h24c4 0 6 2 6 4v56c0 2-2 4-5 4H58V20z"/>
  <path fill="#8B6238" d="M48 18h12v68H48V18z"/>
  <path stroke="#D8C8B0" stroke-width="1.4" d="M28 34h16M28 42h16M28 50h14M28 58h16M28 66h12M64 34h16M64 42h16M64 50h14M64 58h16M64 66h12"/>
  <path fill="#C45C3E" d="M54 16h4v22l-2-2-2 2V16z"/>
</svg>
