<svg xmlns="http://www.w3.org/2000/svg" viewBox="0 0 108 108" fill="none">
  <defs>
    <linearGradient id="bg" x1="12" y1="8" x2="96" y2="100" gradientUnits="userSpaceOnUse">
      <stop stop-color="#1E4D7B"/>
      <stop offset="1" stop-color="#0F2D4A"/>
    </linearGradient>
    <linearGradient id="pageL" x1="24" y1="30" x2="52" y2="78" gradientUnits="userSpaceOnUse">
      <stop stop-color="#FFFFFF"/>
      <stop offset="1" stop-color="#E8F0FA"/>
    </linearGradient>
    <linearGradient id="pageR" x1="56" y1="30" x2="84" y2="78" gradientUnits="userSpaceOnUse">
      <stop stop-color="#F8FBFF"/>
      <stop offset="1" stop-color="#DCE8F5"/>
    </linearGradient>
    <linearGradient id="accent" x1="40" y1="44" x2="68" y2="44" gradientUnits="userSpaceOnUse">
      <stop stop-color="#F6C66B"/>
      <stop offset="1" stop-color="#E8A83A"/>
    </linearGradient>
    <filter id="glow" x="-20%" y="-20%" width="140%" height="140%">
      <feGaussianBlur stdDeviation="2" result="blur"/>
      <feMerge>
        <feMergeNode in="blur"/>
        <feMergeNode in="SourceGraphic"/>
      </feMerge>
    </filter>
  </defs>
  <rect width="108" height="108" rx="24" fill="url(#bg)"/>
  <rect x="6" y="6" width="96" height="96" rx="20" stroke="#FFFFFF" stroke-opacity="0.08" stroke-width="1"/>
  <path d="M54 22c-14 0-26 4-30 10v44c4-6 16-10 30-10s26 4 30 10V32c-4-6-16-10-30-10z" fill="#0A2238" fill-opacity="0.55"/>
  <path d="M26 32c6-5 16-8 28-8s22 3 28 8v40c-6-5-16-8-28-8s-22 3-28 8V32z" fill="url(#pageL)"/>
  <path d="M54 24c12 0 22 3 28 8v40c-6-5-16-8-28-8V24z" fill="url(#pageR)"/>
  <path d="M52 24v48" stroke="#B8CCE0" stroke-width="1.2" stroke-linecap="round"/>
  <path d="M34 42h14M34 50h12M34 58h10M62 42h14M62 50h12M62 58h10" stroke="#C5D5E8" stroke-width="1.4" stroke-linecap="round"/>
  <path d="M38 38h32" stroke="url(#accent)" stroke-width="2.2" stroke-linecap="round" filter="url(#glow)"/>
  <circle cx="54" cy="38" r="2.2" fill="#E8A83A"/>
</svg>
