<svg xmlns="http://www.w3.org/2000/svg" viewBox="0 0 108 108" fill="none">
  <rect width="108" height="108" rx="24" fill="#5C4033"/>
  <path d="M0 0h108v40c-36 12-72 12-108 0V0z" fill="#3D2914"/>
  <path d="M24 28l28-4v56l-28-4V28z" fill="#FFF8EB"/>
  <path d="M56 24l28 4v48l-28 4V24z" fill="#FAF0E0"/>
  <path d="M50 24h8v56h-8V24z" fill="#8B6914"/>
  <path stroke="#D4C4A8" stroke-width="1.2" d="M30 38h16M30 46h16M30 54h14M30 62h16M62 36h16M62 44h16M64 52h14M62 60h16"/>
  <rect x="62" y="14" width="26" height="24" rx="6" fill="#4A7C9B"/>
  <text x="68" y="31" fill="#fff" font-family="system-ui,sans-serif" font-size="11" font-weight="700">EP</text>
</svg>
