<svg xmlns="http://www.w3.org/2000/svg" viewBox="0 0 108 108" fill="none">
  <rect x="4" y="8" width="100" height="92" rx="12" fill="#4A3428"/>
  <rect x="8" y="10" width="92" height="86" rx="10" fill="#6B4E3D"/>
  <rect x="14" y="18" width="80" height="72" rx="6" stroke="#D4AF37" stroke-width="1.2"/>
  <rect x="18" y="20" width="70" height="66" rx="4" fill="#8B5E3C"/>
  <path fill="#6F4528" fill-opacity=".35" d="M18 20h26v66H18z"/>
  <rect x="46" y="18" width="16" height="70" fill="#3E2A1E"/>
  <path stroke="#D4AF37" stroke-width=".8" d="M50 24h8M50 30h8M50 36h8"/>
  <path fill="#FFF9F0" d="M22 26c0-2 2-4 6-4h16v60H26c-3 0-4-2-4-4V26z"/>
  <path fill="#F7EFE3" d="M64 22h16c4 0 6 2 6 4v52c0 2-2 4-5 4H64V22z"/>
  <path fill="#E8D9C4" fill-opacity=".55" d="M42 22h4v60h-4z"/>
  <path fill="#E8D9C4" fill-opacity=".45" d="M62 22h2v60h-2z"/>
  <path stroke="#C9B59A" stroke-width="1.2" d="M28 34h12M28 41h12M28 48h10M28 55h12M28 62h8M28 69h11M68 34h12M68 41h12M68 48h10M68 55h12M68 62h8M68 69h11"/>
  <path stroke="#E8C872" stroke-width="1.6" d="M24 34h18M24 40h16"/>
  <path fill="#B83232" d="M54 14h4v26l-2-3-2 3V14z"/>
  <path fill="#8F2424" d="M54 14h2v26l-2-2V14z"/>
  <path stroke="#D8C4A0" stroke-width="1.4" stroke-linecap="round" d="M78 28c4 4 6 10 4 16l4 4"/>
  <path fill="#5C4A38" d="m84 47 4 4-2 1-4-4z"/>
  <path stroke="#D4AF37" stroke-width=".9" d="M22 24h6v6M86 24h-6v6M22 80h6v-6M86 80h-6v-6"/>
</svg>
